<svg width="40" height="40" viewBox="0 0 40 40" fill="none" xmlns="http://www.w3.org/2000/svg">
<g filter="url(#filter0_d_47_788)">
<circle cx="18" cy="16" r="10" fill="white"/>
</g>
<path d="M18.78 18.5892H17.184C17.1653 18.0946 17.212 17.6559 17.324 17.2732C17.4453 16.8906 17.604 16.5779 17.8 16.3352C18.0053 16.0832 18.2107 15.8546 18.416 15.6492C18.6213 15.4439 18.8173 15.2199 19.004 14.9772C19.2 14.7252 19.3307 14.4639 19.396 14.1932C19.4707 13.6426 19.3587 13.2132 19.06 12.9052C18.7613 12.5879 18.3693 12.4292 17.884 12.4292C17.52 12.4292 17.1887 12.5506 16.89 12.7932C16.5913 13.0359 16.414 13.3579 16.358 13.7592H15C15.0373 12.8539 15.3127 12.1679 15.826 11.7012C16.3487 11.2346 17.03 11.0012 17.87 11.0012C18.6447 10.9826 19.3213 11.1739 19.9 11.5752C20.488 11.9766 20.838 12.5039 20.95 13.1572C21.006 13.5119 21.0153 13.8199 20.978 14.0812C20.9407 14.4172 20.8333 14.7346 20.656 15.0332C20.488 15.3226 20.2967 15.5792 20.082 15.8032C19.8767 16.0272 19.6713 16.2652 19.466 16.5172C19.2607 16.7599 19.0927 17.0586 18.962 17.4132C18.8313 17.7586 18.7707 18.1506 18.78 18.5892ZM18.626 20.8012C18.458 20.9599 18.2433 21.0392 17.982 21.0392C17.7207 21.0392 17.4967 20.9599 17.31 20.8012C17.1327 20.6426 17.044 20.4372 17.044 20.1852C17.044 19.9332 17.1327 19.7279 17.31 19.5692C17.4967 19.4106 17.7207 19.3312 17.982 19.3312C18.2433 19.3312 18.458 19.4106 18.626 19.5692C18.8033 19.7279 18.892 19.9332 18.892 20.1852C18.892 20.4372 18.8033 20.6426 18.626 20.8012Z" fill="#444B58"/>
<defs>
<filter id="filter0_d_47_788" x="0" y="0" width="40" height="40" filterUnits="userSpaceOnUse" color-interpolation-filters="sRGB">
<feFlood flood-opacity="0" result="BackgroundImageFix"/>
<feColorMatrix in="SourceAlpha" type="matrix" values="0 0 0 0 0 0 0 0 0 0 0 0 0 0 0 0 0 0 127 0" result="hardAlpha"/>
<feOffset dx="2" dy="4"/>
<feGaussianBlur stdDeviation="5"/>
<feColorMatrix type="matrix" values="0 0 0 0 0 0 0 0 0 0.0509804 0 0 0 0 0.329412 0 0 0 0.2 0"/>
<feBlend mode="normal" in2="BackgroundImageFix" result="effect1_dropShadow_47_788"/>
<feBlend mode="normal" in="SourceGraphic" in2="effect1_dropShadow_47_788" result="shape"/>
</filter>
</defs>
</svg>
